# xmcd CD database file
#
# Track frame offsets:
#	150
#	3022
#	16775
#	34343
#	49625
#	83950
#	106837
#	120140
#	131394
#	162350
#	198493
#	228112
#
# Disc length: 3103 seconds
#
# Revision: 0
# Processed by: cddbd v1.5.1PL2 Copyright (c) Steve Scherf et al.
# Submitted via: CDex 1.51
#
DISCID=7e0c1d0c
DTITLE=LES FRERES - Flower Dance Tour - Live -
DYEAR=2004
DGENRE=Blues
TTITLE0=Introduction
TTITLE1=Michael Lee
TTITLE2=ブルースカナカナ？
TTITLE3=ODORICO
TTITLE4=狂想曲
TTITLE5=イーグル
TTITLE6=宝探し
TTITLE7=Boogie Woogie 即興
TTITLE8=アップルケーキ～ウーシーブギ
TTITLE9=On y va!～フラワーダンス
TTITLE10=アンコール
TTITLE11=ラララの歌
EXTD=YEAR: 2004
EXTT0=
EXTT1=
EXTT2=
EXTT3=
EXTT4=
EXTT5=
EXTT6=
EXTT7=
EXTT8=
EXTT9=
EXTT10=
EXTT11=
PLAYORDER=
